<svg width="32" height="32" viewBox="0 0 32 32" fill="none" xmlns="http://www.w3.org/2000/svg">
<path fill-rule="evenodd" clip-rule="evenodd" d="M13.9887 15.0293C17.2011 15.0293 19.8054 11.6649 19.8054 7.51469C19.8054 3.3644 18.9504 0 13.9887 0C9.02708 0 8.17188 3.3644 8.17188 7.51469C8.17188 11.6649 10.7762 15.0293 13.9887 15.0293Z" fill="#004A51"/>
<path fill-rule="evenodd" clip-rule="evenodd" d="M24.9766 26.7006C24.9799 26.6314 24.9778 26.2199 24.9766 26.7006V26.7006Z" fill="#004A51"/>
<path d="M21.0365 18.0371C24.8862 18.0371 28.0183 21.169 28.0183 25.0189C28.0183 28.8689 24.8862 32.0007 21.0365 32.0007C17.1868 32.0007 14.0547 28.8689 14.0547 25.0189C14.0547 21.169 17.1868 18.0371 21.0365 18.0371ZM17.6799 25.556H20.4994V28.5098C20.4994 28.8063 20.74 29.0469 21.0365 29.0469C21.333 29.0469 21.5736 28.8063 21.5736 28.5098V25.556H24.3932C24.6896 25.556 24.9302 25.3154 24.9302 25.0189C24.9302 24.7225 24.6896 24.4819 24.3932 24.4819H21.5736V21.7965C21.5736 21.5001 21.333 21.2595 21.0365 21.2595C20.74 21.2595 20.4994 21.5001 20.4994 21.7965V24.4819H17.6799C17.3834 24.4819 17.1428 24.7225 17.1428 25.0189C17.1428 25.3154 17.3834 25.556 17.6799 25.556Z" fill="#004A51"/>
<path fill-rule="evenodd" clip-rule="evenodd" d="M15.1903 30.6902C13.7671 29.2236 12.8909 27.2232 12.8909 25.0182C12.8909 20.5196 16.5378 16.8727 21.0364 16.8727C21.1648 16.8727 21.2926 16.8757 21.4196 16.8816C20.354 16.3487 18.9697 15.9506 17.1717 15.6055C17.1717 15.6055 16.2155 16.9015 13.9866 16.9015C11.7578 16.9015 10.8014 15.6055 10.8014 15.6055C4.08223 16.8953 3.1405 18.9248 3.01667 25.9645C3.00652 26.5394 3.00181 26.5695 3 26.5027C3.0001 26.534 3.00021 26.554 3.0003 26.5725C3.00059 26.6282 3.00081 26.672 3.00081 26.9744C6.84907 29.9923 11.204 30.9744 15.1903 30.6902Z" fill="#004A51"/>
</svg>
