<svg width="32" height="32" viewBox="0 0 32 32" fill="none" xmlns="http://www.w3.org/2000/svg">
<path fill-rule="evenodd" clip-rule="evenodd" d="M1.23697 0H21.0286C21.7447 0 22.3306 0.607901 22.3306 1.28335V7.29481H19.2708V3.85004C19.2708 3.51231 19.0103 3.24214 18.6848 3.24214H6.38019L11.5885 5.94392C12.6953 6.48427 13.5416 8.10534 13.5416 9.45623V22.2221H18.6848C19.0103 22.2221 19.2708 21.952 19.2708 21.6142V14.9273H22.3306V24.1134C22.3306 24.8564 21.7447 25.4643 21.0286 25.4643H13.5416V30.3275C13.5416 31.6784 12.6953 32.3538 11.5885 31.8135L1.95312 26.8152C1.36718 26.545 0.781247 25.8695 0.455728 25.1266C0.195312 24.9239 0 24.5187 0 24.1134V1.28335C0 0.607901 0.585935 0 1.23697 0Z" fill="#004A51"/>
<path fill-rule="evenodd" clip-rule="evenodd" d="M17.6427 9.27059H26.2364L24.3484 7.37934C23.6974 6.77144 23.6974 5.62318 24.3484 4.94774C24.9344 4.27229 26.0411 4.27229 26.6922 4.94774C27.4734 5.69073 31.2494 9.54077 31.2494 9.54077C31.9005 10.4188 32.4213 11.2969 31.5099 12.2425C29.9474 13.8636 28.3198 15.4847 26.6922 17.1058C26.0411 17.7812 24.9995 17.7812 24.3484 17.1058C23.6974 16.4303 23.6974 15.3496 24.3484 14.6741L26.2364 12.7829H17.6427C16.7313 12.7829 16.0151 11.9724 16.0151 11.0267C16.0151 10.0811 16.7313 9.27059 17.6427 9.27059Z" fill="#004A51"/>
</svg>
