<svg width="32" height="32" viewBox="0 0 32 32" fill="none" xmlns="http://www.w3.org/2000/svg">
<path fill-rule="evenodd" clip-rule="evenodd" d="M12.5938 13.1208C15.3983 13.1208 17.6719 10.1836 17.6719 6.56044C17.6719 2.93717 16.9255 0 12.5938 0C8.26224 0 7.51562 2.93717 7.51562 6.56044C7.51562 10.1836 9.78927 13.1208 12.5938 13.1208Z" fill="#004A51"/>
<path fill-rule="evenodd" clip-rule="evenodd" d="M22.1836 23.31C22.1865 23.2496 22.1847 22.8904 22.1836 23.31V23.31Z" fill="#004A51"/>
<path d="M26.8988 27.8883L28.3984 27.8883L28.3984 16.3749C28.3984 15.4703 27.7236 14.7302 26.8988 14.7302L16.4015 14.7302L16.4015 16.3749L26.8988 16.3749L26.8988 27.8883Z" fill="#004A51"/>
<path d="M25.0243 29.944L26.5239 29.944L26.5239 18.4306C26.5239 17.526 25.8491 16.7859 25.0243 16.7859L14.5269 16.7859L14.5269 18.4306L25.0243 18.4306L25.0243 29.944Z" fill="#004A51"/>
<path d="M23.1498 32L24.6494 32L24.6494 20.4866C24.6494 19.582 23.9746 18.8418 23.1498 18.8418L12.6524 18.8418L12.6524 20.4866L12.6524 32L23.1498 32Z" fill="#004A51"/>
<path fill-rule="evenodd" clip-rule="evenodd" d="M11.3815 26.7938L11.3824 17.778L13.4127 17.7778V15.746H15.6984L15.6984 13.7143L16.0363 13.7581C15.8225 13.7119 15.6011 13.667 15.3722 13.623C15.3722 13.623 14.5373 14.7545 12.5915 14.7545C10.6457 14.7545 9.81072 13.623 9.81072 13.623C3.9448 14.7491 3.12266 16.5209 3.01456 22.6667C3.00569 23.1685 3.00158 23.1948 3 23.1365C3.00009 23.1639 3.00018 23.1812 3.00026 23.1975C3.00051 23.2461 3.00071 23.2843 3.00071 23.5483C5.6445 25.6216 8.56221 26.5943 11.3815 26.7938Z" fill="#004A51"/>
</svg>
