<svg width="927" height="572" viewBox="0 0 927 572" fill="none" xmlns="http://www.w3.org/2000/svg">
<g opacity="0.3">
<path d="M444.704 624V475.871H303.88V401.807H407.645L329.821 324.039L389.115 264.788L466.939 342.556V238.865H541.057V342.556L618.88 264.788L678.174 324.039L600.351 401.807H704.115V475.871H563.292V624H444.704Z" fill="#10D25F"/>
<path d="M800.468 335.149C886.471 359.493 914.984 391.183 933.88 475.871H1008C998.098 352.257 945 305.537 896.824 287.022C889.412 153.706 811.588 75.9382 674.471 87.0412C589.235 -31.4552 407.647 -27.7487 340.941 90.7444C189 87.0412 118.588 135.183 118.588 283.312C44.4706 316.641 0 387.002 0 475.871H77.8235C77.8235 401.807 126 353.673 207.527 335.156C174.176 216.654 237.174 127.777 377.998 187.02C403.939 46.3052 604.057 50.0079 629.998 187.02C726.351 127.734 852.351 198.1 800.468 335.149Z" fill="#10D25F"/>
</g>
</svg>
